# xmcd
#
# Track frame offsets: 
#        150
#        18858
#        31799
#        57673
#        75012
#        97271
#        116952
#        141409
#        152237
#        171519
#        198735
#        214766
#        232015
#        254573
#
# Disc length: 3883 seconds
#
# Revision: 0
# Processed by: cddbd v1.5.2PL0 Copyright (c) Steve Scherf et al.
# Submitted via: ExactAudioCopy v0.95b4
#
DISCID=ce0f290e
DTITLE=Fruitcake-Superbeing - Developmental Texas How-Now
DYEAR=2006
DGENRE=Roadhouse
TTITLE0=Shoestrings
TTITLE1=What Time It Is
TTITLE2=Yella belly
TTITLE3=Mighty Big Shoes
TTITLE4=Ghetto Flower
TTITLE5=Grey Matta Boogie
TTITLE6=Analog Reference
TTITLE7=She Flys Solo
TTITLE8=Hit Me With Dat Smile
TTITLE9=Flamin
TTITLE10=Chiptole
TTITLE11=Love Me Left
TTITLE12=Sugar Train
TTITLE13=Trailer Park Disco
EXTD=
EXTT0=
EXTT1=
EXTT2=
EXTT3=
EXTT4=
EXTT5=
EXTT6=
EXTT7=
EXTT8=
EXTT9=
EXTT10=
EXTT11=
EXTT12=
EXTT13=
PLAYORDER=
